<svg xmlns="http://www.w3.org/2000/svg" width="902" height="1077.5" viewBox="0 0 902 1077.5">
  <g id="Group_44" data-name="Group 44" transform="translate(-266 -68)">
    <g id="User" transform="translate(1770 430)">
      <g id="Browser" transform="translate(-1054 -362)">
        <g id="Background">
          <rect id="Rectangle" width="367" height="329" rx="20" fill="#f2f6fb"/>
        </g>
        <path id="Top-bar" d="M0,18.184A18.181,18.181,0,0,1,18.184,0H348.816A18.182,18.182,0,0,1,367,18.184V36.368H0Z" fill="#e1e5f0"/>
        <ellipse id="Burron" cx="8.456" cy="8.458" rx="8.456" ry="8.458" transform="translate(14.376 10.995)" fill="#ff5645"/>
        <ellipse id="Burron-2" data-name="Burron" cx="8.879" cy="8.458" rx="8.879" ry="8.458" transform="translate(40.59 10.995)" fill="#ffcb3d"/>
        <ellipse id="Burron-3" data-name="Burron" cx="8.456" cy="8.458" rx="8.456" ry="8.458" transform="translate(67.65 10.995)" fill="#3abf7c"/>
      </g>
    </g>
    <g id="Characters-standing-_-Woman-standing-_-4" data-name="Characters-standing-/-Woman-standing-/-4" transform="translate(9 68)">
      <g id="Woman" transform="translate(257 51)">
        <path id="Base" d="M167.5,887a4.5,4.5,0,0,1,0,9H4.5a4.5,4.5,0,0,1,0-9Zm318,9H383c-2.4,0-4.5-1.731-4.5-3.808v-1.385c0-2.077,2-3.808,4.5-3.808H485.5c2.4,0,4.5,1.731,4.5,3.808v1.385C490,894.269,488,896,485.5,896Z" fill="#3abf7c"/>
        <path id="Shoes" d="M168.026,887.03a4.546,4.546,0,0,0-.526-.03H5.208a10.262,10.262,0,0,1-.146-2.131,20.788,20.788,0,0,1,.34-2.294c1.284-4.778,2.839-7.952,7.389-10.773a126.494,126.494,0,0,1,14.034-7.556c17.849-8.39,23.948-8.283,35.684-15.98A95.02,95.02,0,0,0,76,837.3q4.171-4.028,18.031-13.087h74.6Zm318.02,0a5.01,5.01,0,0,0-.546-.03H383.344l8.083-51.013,71.6-9.7Z" fill="#474961"/>
        <path id="Legs" d="M274.9,492.094c-22.748,75.255-36.951,127.148-60.909,205.711q-7.436,21.086-5.486,31.983c1.95,10.9,11.564,30.436,16.249,51.742s-43.362-2.072-84.22-9.918S57.589,755.76,58.683,749.64c2.646-14.548,44.151-33.574,47.433-51.834s5.767-38.144,6.225-41.417C133.364,531.5,153.093,435.544,163.783,383.35c4.51-22.382,13.174-64.64,44.724-107.9,2.053-2.736,3.716-4.866,4.693-6.183a35.838,35.838,0,0,1,9.466-7.12l-.221-1.843c8-5.94,13.423-10.236,45.785-12.7.8-.014,1.7-.13,2.5-.144,31.376-1.648,58.011,9.8,78.1,34.5q19.235,28.63,30.144,70.431,10.013,38.369,76.3,344.006,2.983,8.827,5.781,12.953c6.213,9.162,24.552,21.659,37.5,39.217S458.1,764.309,417.583,773.76s-82.223,19.255-83.714,13.219c-2.772-11.38,15.586-35.244,21.138-53.628q-25.239-68.651-49.38-142.446Q289.294,540.692,274.9,492.094Z" fill="#3ac07c"/>
        <path id="Shadow-T-shirt" d="M274.6,492.32c-22.639,74.921-36.83,126.745-60.722,205.093Q206.44,718.5,208.389,729.4c1.95,10.9,11.564,30.436,16.249,51.742s-43.362-2.072-84.22-9.918-82.946-15.853-81.853-21.973C61.211,734.7,102.716,715.673,106,697.413s5.767-38.144,6.225-41.417c21.024-124.886,40.752-220.845,51.443-273.039,4.51-22.382,13.174-64.64,44.724-107.9,2.053-2.736,3.716-4.866,4.693-6.183a35.789,35.789,0,0,1,9.26-7.011c3.712,30.976,7.87,66.165,13.917,93.923,6.118,28.086,14.269,54.71,22.758,82.666Q266.528,465.108,274.6,492.32Z" fill="#444" opacity="0.177"/>
        <path id="T-shirt" d="M313.264,106.337a58.785,58.785,0,0,1,15.241,6.816c19.388,12.409,30.8,36.06,21.942,59.347q-2.769,7.277-18.6,17.621-1.284.144-2.548.253L325.987,226.2c-.1,1.1-.2,2.1-.2,3.2-.1,5-1,12.4-5.3,17.8-6,7.6-14.9,18.6-52.1,19-40,.4-49.6-10.6-55.8-18.4-4.3-5.3-5.4-11.7-5.5-16.9,0-1.1-.1-2.1-.2-3.2L203.356,190.1c-18.756-3.141-21.621-15.569-24.715-25.187-6.3-19.593,7.163-42.631,23.886-53.649,11.912-7.848,26.523-11.143,40.118-8.334A72.769,72.769,0,0,1,262.787,100h5.7C285.753,99.9,301.5,101.419,313.264,106.337Z" fill="#f06"/>
        <path id="Shadow-T-shirt-2" data-name="Shadow-T-shirt" d="M203.32,189.718c-18.375-3.256-21.22-15.569-24.291-25.113-6.3-19.593,7.163-42.631,23.886-53.649,12.026-7.923,26.8-11.206,40.509-8.251-21.1,5.955-36.549,21.079-41.838,38.5a40.272,40.272,0,0,0-1.3,16.2Z" fill="#444" opacity="0.177"/>
        <path id="Skin" d="M235.7,85.384l-.8.2c-8.774,2.193-8.262,2.029-8.874,2.186a38.026,38.026,0,0,1-12.818-.195c-8.2-1.676-15.972-18.158-17.409-40.613a49.039,49.039,0,0,1-.022-5.415l1.548-17.835a22.316,22.316,0,0,1,3.881-11.056,8.794,8.794,0,0,1,.668-.956,34.009,34.009,0,0,1,2.29-2.647,27.841,27.841,0,0,1,9.673-6.441A44.922,44.922,0,0,1,235.48,1.318c.691.149,2.865.6,5.93,1.217a42.4,42.4,0,0,0,8.5,1.8,3.064,3.064,0,0,1,2.577,3.288L249.7,33.087c-.068.61,7.465-5.149,15.263-3.087q3.771,1,10.405,10.6Q273,47.832,272.89,48.039q-4.906,8.975-7.2,11.286l-.607,16.039L266.115,100h-3.328a71.624,71.624,0,0,0-26.2,5.022Zm215.811,682.34,11.521,58.581-71.411,10.043-7.583-55.124c10.756-2.371,22.367-5.086,33.882-7.771C428.7,770.938,440.4,769.221,451.514,767.724ZM112.22,765.73c9.227,1.85,18.975,3.717,28.654,5.576,12.684,2.436,26.061,6.369,38.339,10l-10.562,44H93Zm87.457-517.047q-17.168,13.627-34.833,12.289Q113.931,257.116,60.06,160.6l.007,0h0L24.539,92.646q13.3-11.11,24.564.865,10.38,13.627,11.954,16.264c15.711,26.325,28.363,21.66,43.734,41.007l47.927,41.266,17.521-18.078q-3.306-12.521-6.366-26.541c-5.316-3.589-13.511-10.122-26.873-21.315q-1.88-1.575-18.5-4.187Q93.789,125.165,96.164,108l70.673-4.629a22,22,0,0,1,19.211,8.986,120.291,120.291,0,0,1,11.559,18.478l42.382,63.553,22.048-35.77c6.446,11.576,16.03,16.817,29.236,24.285q16.272,9.2,39.183,6.972-44.177,87.434-86.664,88.672Q219.162,279.264,199.677,248.682Z" fill="#ed9474"/>
        <path id="Shadow-Arm" d="M200.3,248.55q-17.249,13.766-35,12.421Q114.392,257.116,60.521,160.6l.007,0h0L25,92.646q13.3-11.11,24.564.865,10.38,13.627,11.954,16.264c15.711,26.325,28.363,21.66,43.734,41.007l47.927,41.266L170.8,173.865Q183.686,222.573,200.3,248.55Z" fill="#8c2a00" opacity="0.2"/>
        <path id="Shadow" d="M236.506,94.181l10.978-12.355-11.925,3.959Z" transform="translate(6.727 -16.633) rotate(4)" fill="#482d1f"/>
        <path id="Hair" d="M284.984,51.576q-1.965,7.136,1.128,10.923c10.338,12.659,15.035,14.509,12.45,19.142q-4.429,7.938-33,4.181c-12.693-8.584-9.844-24.066-9.827-25.416l-.016-.034a15.858,15.858,0,0,0,8.866-3.589,13.645,13.645,0,0,0,4.347-13.429c-1.148-5.092-5.65-9.517-10.445-9.752a11.3,11.3,0,0,0-5.3,1.233,15.874,15.874,0,0,0-5.471,5.131l-1.142,2.159c-.317-.573-.619-1.109-.9-1.6-6.439-8.269-12.885-16.439-19.423-24.715-11.56-3.515-22.426-3.272-24.152-4.4a34.009,34.009,0,0,1,2.29-2.647,27.841,27.841,0,0,1,9.673-6.441A44.922,44.922,0,0,1,235.7,1.033c.691.149,2.865.6,5.93,1.217.891.163,1.782.325,2.872.5,2.58.381,4.561.72,5.751.9,15.093,2.058,21.1.774,28.386,5.493a24.231,24.231,0,0,1,6.85,6.694c7.069,10.719,3.889,23.228,3.026,26.977A36.2,36.2,0,0,1,284.984,51.576ZM194.761,34.648a1.254,1.254,0,0,1-.439-2.17,7.212,7.212,0,0,1,4.6-1.35c4.094.3,8.268,3.232,3.73,4.085A16.747,16.747,0,0,1,194.761,34.648Zm19.255,2.364a1.2,1.2,0,0,1-.34-2.157,7.253,7.253,0,0,1,4.7-1.337c4.094.3,8.256,3.331,3.73,4.085A17.582,17.582,0,0,1,214.016,37.013Z" fill="#482d1f"/>
        <path id="Phone" d="M34.566,55.219h0c2.8-1.5,5.8-1.4,6.7.3l42.8,76.9c.9,1.7-.5,4.3-3.3,5.9h0c-2.8,1.5-5.8,1.4-6.7-.3l-42.8-76.9C30.266,59.319,31.766,56.719,34.566,55.219Z" transform="translate(-8.215 5.392) rotate(-5)" fill="#474961"/>
        <path id="Eyes" d="M201.267,43.205c-.009,1.712-.052,4.527-1.191,5.6-1.51,1.628-4.026-3.315-2.941-6.406.468-1.353,1.212-1.665,2.006-1.567A2.464,2.464,0,0,1,201.267,43.205Zm17.74,1.574c.091,1.724-.052,4.527-1.191,5.6-1.51,1.628-4.026-3.315-2.941-6.406.468-1.353,1.212-1.665,2.006-1.567A2.464,2.464,0,0,1,219.007,44.779Z" fill="#482d1f"/>
        <path id="Mouth" d="M211.738,63.993c.7-.2,2.4-.8,2.7-1.9,0-.2.1-.5,0-.7-.4-.6-1.7-.3-3.5-.1a31.057,31.057,0,0,1-5.8,0,12.072,12.072,0,0,0,1.3,2.5C207.438,65.393,210.638,64.293,211.738,63.993Z" transform="translate(9.222 -25.101) rotate(7)" fill="#482d1f"/>
        <path id="Nose" d="M204.739,55.527l-.006.111a2.286,2.286,0,0,0,1.836,2.286c.2.019.311.027.423.034,1.058.069,1.817.079,4.541.079a1,1,0,0,0,0-2c-2.676,0-3.414-.01-4.411-.075l-.312-.022c.022,0-.061-.116-.075-.264l1.192-10.628.006-.145-.2-5.9a1,1,0,1,0-2,.068l.2,5.827Z" transform="translate(7.41 -25.068) rotate(7)" fill="#482d1f"/>
        <path id="Heart" d="M113.138,98.71v.733l-.868-.365-.868.365V98.71Q58.435,76.06,70.108,47.184q11.7-28.935,42.162-9.148,30.465-19.787,42.162,9.148Q166.105,76.06,113.138,98.71Z" transform="translate(0 -29.443)" fill="#ff5645"/>
        <path id="Shadow-2" data-name="Shadow" d="M262.905,158.929c-.99-14.261,1.372-24.894,7-31.948a1.5,1.5,0,1,0-2.345-1.872c-6.166,7.724-8.689,19.082-7.651,34.027a1.5,1.5,0,1,0,2.993-.208Z" fill="#482d1f"/>
      </g>
    </g>
    <g id="Characters-in-moshion-_-Woman-in-moshion-_-10" data-name="Characters-in-moshion-/-Woman-in-moshion-/-10" transform="translate(370 198.5)">
      <g id="Woman-2" data-name="Woman" transform="translate(261 368)">
        <path id="Base-2" data-name="Base" d="M442.372,570a4.46,4.46,0,0,1,1.32-.2h55.5a4.6,4.6,0,1,1,0,9.2H291.5a4.5,4.5,0,0,1,0-9Z" fill="#ffcb3d"/>
        <path id="Shoes-2" data-name="Shoes" d="M451.45,570h-7.758a4.46,4.46,0,0,0-1.32.2H291.5a4.481,4.481,0,0,0-2.02.478L288,505.946l74.861,1.067L377.047,467l65.8,19.944c3.286,11.168,6.671,22.337,10.056,33.6,1.792,5.883,3.584,11.667,5.376,17.451,5.576,2.194,10.355,4.188,13.74,5.684a113.054,113.054,0,0,1,17.922,9.274A28.565,28.565,0,0,1,498,560.735a20.47,20.47,0,0,1,2.19,4.986,20.757,20.757,0,0,1,.3,2.294,10.144,10.144,0,0,1-.367,2.085,4.448,4.448,0,0,0-.932-.1H451.468a1.381,1.381,0,0,0,.061-.435A1.389,1.389,0,0,1,451.45,570Z" fill="#474961"/>
        <path id="Shadow-Shoes" d="M451.626,570a1.4,1.4,0,0,0,.032-.7,16.011,16.011,0,0,0-.3-2.3c-1.2-4.8-5-8.8-7.2-10.9a117.918,117.918,0,0,0-13.9-7.8c-17.7-8.8-22.8-8.7-34.4-16.6a88.665,88.665,0,0,1-13.3-11.2l-17.206-13.4L363,507.066,377.205,467,443,486.944c3.286,11.168,6.671,22.337,10.056,33.6,1.792,5.883,3.584,11.667,5.376,17.451,5.576,2.194,10.355,4.188,13.74,5.684a113.054,113.054,0,0,1,17.922,9.274,28.565,28.565,0,0,1,8.065,7.778,20.47,20.47,0,0,1,2.19,4.986,20.757,20.757,0,0,1,.3,2.294,10.222,10.222,0,0,1-.377,2.119,4.453,4.453,0,0,0-1.081-.133Z" fill="#444" opacity="0.177"/>
        <path id="Legs-2" data-name="Legs" d="M385.479,439.6c.357,8.533.839,15.628,1.532,20.838.116,1.3.05,10.885-1.741,14.288-5.562,10.419-36.393,7.357-63.852,8.122s-42.6,3.448-50.769-2.874c-4.478-3.445-5.142-9.63-5.409-11.788-1.226-10.993-2.651-22.13-4.155-33.324q-51.339,20.37-64.575,24.162c-8.732,2.5-18.407,3.175-27.207,3.586C94.317,489.845,53.945,445.9,49.693,435.46c-16.242-39.87-11.209-72.679,2.577-95.96q13.335-22.521,204.5-109.043,4.286-1.94,18.834-9.568,16.969-9.081,44.736-10.146a58,58,0,0,1,12.762.923q40.075,7.405,43.172,28.56l.075.428c.912,6.061,1.713,12.449,2.418,19.084q6.985-1.475,13.248-3.107l.041-.029c10.99-7.578,51.6-13.833,71.445-5.21a59.519,59.519,0,0,1,35.223,62.864h0q-7.965,56.73-9.113,61.505c-1.142,4.88-15.018,60.061-20.083,80.313-1.112,4.6-5.989,8.084-12.243,8.713C450.395,465.523,408.34,449.078,385.479,439.6Z" fill="#a339ff"/>
        <path id="Shadow-Legs" d="M385.863,439.754c-1.677-43.4-.468-121.661-6.681-179.966q6.879-1.457,13.056-3.067l.041-.029c10.99-7.578,51.6-13.833,71.445-5.21a59.519,59.519,0,0,1,35.223,62.864h0q-7.965,56.73-9.113,61.505c-1.142,4.88-15.017,60.061-20.083,80.313-1.112,4.6-5.989,8.084-12.243,8.713C450.636,465.611,408.759,449.244,385.863,439.754Zm-124.372-4.877q-51.5,20.435-64.757,24.234c-8.329,2.386-17.516,3.109-25.983,3.527q2.166-.8,4.371-1.683a210.87,210.87,0,0,0,81.943-58.3h0C258.539,413.4,260.05,424.162,261.491,434.877Z" fill="#444" opacity="0.177"/>
        <path id="T-shirt-2" data-name="T-shirt" d="M159.471,276.243Q77.634,316.44,57.958,334.03L54,336Q24.061,296.177,29.778,228.157c-9.535-2.334-17.711-4.722-21.447-6.471q-11.207-5.247-6.068-22.961,4.3-17.021,17.417-39.474c10.389-17.79,25.046-18.308,34.506-17.121,8.262-6.152,48.536-6.851,56.092-5.319,11.887,2.5,29.514,6,39.173,20.336a35.3,35.3,0,0,1,5.294,11.919s1.442,4.345,2.466,9.078C159.565,188.969,164.233,226.853,159.471,276.243Z" fill="#ffcb3d"/>
        <rect id="Shadow-Book" width="145" height="11" rx="5.5" transform="translate(173.804 227.144) rotate(-42)" fill="#474961"/>
        <path id="Book" d="M243.358,166.979l-57.351-41.426a10,10,0,0,0-11.894.135L113.429,171.66a10,10,0,0,0,.024,15.96l64.192,48.33,66.117-53.066a10,10,0,0,0-.4-15.905Z" transform="translate(-9.102 9.583) rotate(-3)" fill="#474bff"/>
        <path id="Skin-2" data-name="Skin" d="M78.54,100.283c-2.991-3.873-5.67-7.516-7.093-10.512-2.11-4.363-1.011-17.086,2.978-22.161s35.617-28.55,36.016-28.578c3.371-.536,22.361-2.767,33.128,10.715a20.121,20.121,0,0,1,2.68,3.923,26.007,26.007,0,0,1,2.712,11.539l-.155,17.854a45.071,45.071,0,0,1-.528,5.35c-2.014,12.772-5.984,23.374-10.518,30.207-3.349,5.146-7.144,8.218-10.629,8.562a41.5,41.5,0,0,1-12.8-1.009,20.455,20.455,0,0,1-2.919-.943l.534,11.765c8.658,1.811,19.866,4.309,28.884,10.883q-19.31,10.274-42.769,9.246a137.845,137.845,0,0,1-21.279-2.707C71.245,147.863,64.5,144,60.734,143.382c-1.716-.284-4.043-.755-6.768-1.068l.143-.122c3.29-2.71,12.746-4.392,23.067-5.307l.643-36.83ZM162.891,243.6a6.542,6.542,0,0,0,.694-.041,6.541,6.541,0,0,1-.669,0Zm13.377-10.93,4.242,2.823,3.94-3.505q.194-.146.378-.312l2.355-2.12,56.26-50.061a10,10,0,0,0,1.941-2.343L262.4,161.83c7.7-3.809,13.681-5.312,15.677-2.507,0,0-29.826,32.343-45.577,49.32q-6.182,16.2-18.325,41.445-30.249,14.142-54.865,26.236c1.057-10.539,1.678-20.562,1.979-29.919Q131.9,296.747,70.432,331.488c-52.4,29.619-60.944-71.363-62.3-110.349q.289.144.59.278c10.746,4.811,60.583,15.9,69.817,14.4a3.333,3.333,0,0,0,.769-.185l-1.57,24.227,58.14-41.3.036-.046,28.936-37.036a6.5,6.5,0,0,1,11.086,1.413l.837-1.241a6.5,6.5,0,0,1,11.881,3.98,6.477,6.477,0,0,1,4.53,1.279l.018.014a6.22,6.22,0,0,1,1.224,8.711q-.082.109-.169.215l-.426.516a6.5,6.5,0,0,1,6.262,10.756ZM388.961,440.616c17.554,7.216,43.854,17.51,58.64,21.88l-4.756,24.447L386.625,469.9a36.69,36.69,0,0,0,.347-6.8c-.631-4.746-1.078-11.1-1.407-18.712q-.079-2.245-.177-4.686ZM288.025,484.025c8.248.122,19.08-.78,33.393-1.179,10.217-.285,20.9-.039,30.576-.156l11.731,21.886-.864,2.437-74.768-1.065Z" fill="#f2a98a"/>
        <path id="Shadow-Arm-2" data-name="Shadow-Arm" d="M161,245.667q.6-1.036,1.183-2.079a6.487,6.487,0,0,0,5.118-2.057l8.416-9.025,4.485,2.985,3.94-3.505q.194-.146.378-.312l2.355-2.12,56.26-50.061a10,10,0,0,0,1.941-2.343l17.013-15.319c7.7-3.809,13.681-5.312,15.677-2.507,0,0-29.8,32.313-45.555,49.3C228.1,219.479,222,233.407,214.05,250Q183.691,264.194,159,276.324C160.084,265.507,160.71,255.234,161,245.667Z" fill="#8c2a00" opacity="0.2"/>
        <path id="Shadow-3" data-name="Shadow" d="M111.641,125.728l-13.549-5.663,13.2,17.372Z" transform="translate(-8.726 7.629) rotate(-4)" fill="#482d1f"/>
        <path id="Hair-2" data-name="Hair" d="M128.491,39.931A29.119,29.119,0,0,1,143.68,50.92a20.12,20.12,0,0,1,2.4,4.1,27.169,27.169,0,0,1,1.5,5.043L95.816,74.152l8.861-33.586A198.092,198.092,0,0,1,128.491,39.931Z" transform="translate(-3.678 8.628) rotate(-4)" fill="#482d1f"/>
        <path id="Kerchief" d="M132.176,43.822Q103.818,67.955,96,75.418q-.295.368-.594.762a17.722,17.722,0,0,0-2.859-6.915,12.9,12.9,0,0,0-4.5-3.5c-4.7-1.8-10.9.3-14.3,4.6-3.6,4.4-3.6,10.3-1.7,14.8a14.247,14.247,0,0,0,6.9,7.2l5.3,1.4.56-.209c-4.533,8.079-8.659,15.347-11,15.73-4.259.7-10.094-8.7-14.352-13.354-2.706-2.957-9.04-12.455-10.245-25.152-.329-4.2-1.644-18.437,7.78-28.925a27.45,27.45,0,0,1,8.547-6.182c5.2-2.321,24.55-2.5,39.392-2.277q-3.767-6.84-3.24-27.487a2,2,0,0,1,3.285-1.481Q122.412,19.071,127,25.473q4.09-5.6,22.434-12.146A2,2,0,0,1,152,15.869q-9.282,26.645-13.23,27.752A19.63,19.63,0,0,1,132.176,43.822Z" transform="translate(-3.706 7.151) rotate(-4)" fill="#de3190"/>
        <path id="Eyes-2" data-name="Eyes" d="M143.95,86.547a2.5,2.5,0,0,1,2.561-2.084c.805.044,1.445.6,1.842,1.976.543,3.471-2.94,8.125-4.184,6.107C143.28,91.305,143.677,88.371,143.95,86.547ZM122,85.338a2.5,2.5,0,0,1,2.561-2.084c.805.044,1.445.6,1.842,1.976.543,3.471-2.94,8.125-4.184,6.107C121.33,90.1,121.727,87.162,122,85.338Z" fill="#482d1f"/>
        <path id="Nose-2" data-name="Nose" d="M136.9,87.965l.1,10a.433.433,0,0,1-.2.19c-.547,0-1.106-.036-1.979-.12l-.6-.06-.666-.068c-.577-.058-1.056-.1-1.567-.148a1,1,0,0,0-.173,1.992c.5.044.971.088,1.54.146l.664.067.611.061c.931.09,1.547.13,2.171.13a2.286,2.286,0,0,0,2.2-2.2l-.1-10.01a1,1,0,1,0-2,.02Z" transform="translate(-6.197 9.642) rotate(-4)" fill="#482d1f"/>
        <path id="Mouth-2" data-name="Mouth" d="M130.677,105.527c-.7-.3-2.4-1.1-2.5-2.1,0-.2-.1-.5.1-.6.5-.5,1.7,0,3.5.5a38.968,38.968,0,0,0,5.8,1,9.64,9.64,0,0,1-1.6,2C134.777,107.527,131.677,106.027,130.677,105.527Z" transform="translate(-6.98 9.523) rotate(-4)" fill="#482d1f"/>
        <path id="Glasses" d="M106.9,80.823l-5.86-1.8a1.5,1.5,0,1,1,.88-2.868l6.3,1.932a14.2,14.2,0,0,1,26.259,7.5q0,.281-.011.559l3.022.371a14.213,14.213,0,1,1-.311,2.984l-3.142-.386a14.2,14.2,0,1,1-27.137-8.3Zm3.225.038a11.212,11.212,0,1,0,.314-.622q-.011.046-.025.092A1.5,1.5,0,0,1,110.125,80.861Zm30.087,7.778q-.032.422-.032.852a11.19,11.19,0,1,0,.093-1.449,1.515,1.515,0,0,1-.061.6Z" transform="translate(-5.783 9.476) rotate(-4)" fill="#482d1f"/>
        <path id="Path-6" d="M257.992,403.346l-8.62-83.5a1.5,1.5,0,0,0-2.984.308l8.62,83.5a1.5,1.5,0,1,0,2.984-.308Z" fill="#482d1f"/>
        <path id="Path" d="M88.071,213.123s-3.216,16.592-11.216,20.992" transform="translate(-51.649 26.592) rotate(-14)" fill="none" stroke="#482d1f" stroke-linecap="round" stroke-linejoin="round" stroke-width="3" fill-rule="evenodd"/>
      </g>
    </g>
    <g id="Userpic" transform="translate(715 -21)">
      <g id="User-2" data-name="User" transform="translate(123 125.764)">
        <g id="Group_28" data-name="Group 28" transform="translate(0 0.636)">
          <circle id="Oval" cx="140.5" cy="140.5" r="140.5" fill="#f06"/>
          <g id="Body">
            <path id="Path-2" data-name="Path" d="M56.3-297.625,3.032-296.38v62.745l42.444,5.089L48.4-242.4" transform="matrix(-1, 0.017, -0.017, -1, 62, 26.57)" fill="#bf865f"/>
            <g id="Group_27" data-name="Group 27" transform="matrix(-1, 0.017, -0.017, -1, 257.1, 24.433)">
              <path id="Path-3" data-name="Path" d="M3.032-297.625l49.2,1.15v57.95l-39.2,4.7-2.7-12.8" fill="#bf865f"/>
              <path id="Shirt" d="M153.389-101.266c7.112,3.485,27.956,2.4,28.151,2.3a60.188,60.188,0,0,0,33.593-10.658,54.55,54.55,0,0,0,8.1-6.8c2.7-2.7,7.819-4.184,14.219-29.084,2.3-8.8,5.082-30.775,14.882-45.617q2.95-4.467,8.131-36.018-33.4-4.386-50.892-6.595c2.874-22.27,3.035-40.875,1.061-52.987q2.569-11,1.669-13.1-49.67-1.2-59.17-1.5c-15.6-.5-58.31-4.484-98.082-1.6-10,9.5-9.519,41.7-9.519,41.7q.335,9.506.665,18.091Q18.04-237.1.725-229.557q5.707,30.132,7.507,35.332c3.5,9.9,11.269,27.344,13.108,36.315,5.693,27.781,13.292,35.685,15.992,38.385,3.1,3.2,16.056,14.375,35.719,17.148q6.466.912,25.257,2.312c5.527.954,10.8,1.379,15.324,1.74C126.7-97.36,140.376-96.318,153.389-101.266Z" fill="#ffcb3d"/>
              <path id="T-shirt-3" data-name="T-shirt" d="M153.306-101.322q-14.283-31.662-14.608-59.063t1.643-94.136l-59.317-.672Q80.7-194.162,83.4-161.35t21.247,62.312q23.052,2.557,32.953,1.46T153.306-101.322Z" fill="#fff" fill-rule="evenodd"/>
              <path id="Skin-3" data-name="Skin" d="M141.283-70.7l1.075-32.879a1.951,1.951,0,0,0-.9-1.771,34.393,34.393,0,0,0-10.9-4.583,36.784,36.784,0,0,0-19.4.729,1.988,1.988,0,0,0-1.4,1.875l-.41,19.377c-5.245-1.951-4.952-1.755-5.466-1.926a37.935,37.935,0,0,0-12.7-1.2c-3.6.3-7.4,3.3-10.8,8.4-4.6,6.8-8.7,17.4-10.9,30.1a33.057,33.057,0,0,0-.6,5.4l-.4,17.9a23.937,23.937,0,0,0,2.8,11.6,17.277,17.277,0,0,0,2.6,4C79.918-5.935,88.675-3.248,95.727-2.463a42.629,42.629,0,0,0,9.632.192c.9-.1,4.1-.5,8.7-.8,2.5-.2,4.5-.2,5.7-.3,14.9-.6,20.8,1.2,28.3-2.8a22.484,22.484,0,0,0,7.4-6c7.9-9.9,6-22.7,5.5-26.5-1.8-11.4-8.4-18.4-10.4-21.3A87.936,87.936,0,0,0,141.283-70.7Z" transform="translate(-1.902 -4.048) rotate(2)" fill="#db9e75"/>
              <path id="Combined-Shape" d="M193.976-242.716a1.5,1.5,0,0,0-1.035-1.852,1.5,1.5,0,0,0-1.852,1.035c-3.694,13.058-15.48,52.6-17.976,59.924a1.5,1.5,0,0,0,.935,1.9,1.5,1.5,0,0,0,1.9-.935C178.472-190.026,190.268-229.609,193.976-242.716ZM41.1-247.618a1.5,1.5,0,0,0-1.841-1.054,1.5,1.5,0,0,0-1.054,1.841c3.559,13.1,13.824,53.063,15.454,60.624a1.5,1.5,0,0,0,1.782,1.15,1.5,1.5,0,0,0,1.15-1.782C54.951-194.468,44.676-234.473,41.1-247.618ZM110.272-88.2l13.554,6.006-12.5-21.952ZM79.611-50c-.041-1.7-.243-4.511-1.207-5.546-1.647-1.558-4.02,3.362-2.829,6.505.454,1.317,1.147,1.541,1.95,1.469A2.48,2.48,0,0,0,79.611-50Zm17.879.925c.159-1.7.257-4.494-.7-5.728-1.44-1.751-4.406,2.948-3.518,6.181.354,1.313,1.043,1.637,1.843,1.665A2.38,2.38,0,0,0,97.489-49.078ZM90.013-69.951c-.989-.335-4.152-1.446-5.3.015a13.009,13.009,0,0,0-1.29,2.557,36.525,36.525,0,0,1,5.8.1c1.8.163,2.981.6,3.4-.081.107-.2.017-.5.024-.7C92.387-69.168,90.706-69.727,90.013-69.951Zm-8.618,9.244,1.118,10.676-.2,5.827a1,1,0,0,0,.964,1.034,1,1,0,0,0,1.034-.964l.206-5.9,0-.139L83.381-60.942c0-.019.092-.131.1-.135l.324-.014c1.643-.069,2.65-.08,4.4-.018a1,1,0,0,0,1.034-.964,1,1,0,0,0-.964-1.034c-1.81-.063-2.866-.052-4.556.019-.162.007-.162.007-.412.021A2.195,2.195,0,0,0,81.395-60.708Z" fill="#482d1f"/>
              <path id="Hair-3" data-name="Hair" d="M144.727-41.868a13.327,13.327,0,0,1-2.719,7.353c-3.355,4.386-9.439,6.675-14.18,4.908a11.831,11.831,0,0,1-4.585-3.362,16.916,16.916,0,0,1-1.748-2.968q-22.757,9.863-35.349,10.33a35.416,35.416,0,0,1-18.631-4.584,24.1,24.1,0,0,0,2.422,11.075A17.277,17.277,0,0,0,72.4-15.028c5.761,7.949,14.42,10.939,21.44,11.97a42.629,42.629,0,0,0,9.619.528c.9-.069,4.115-.357,8.723-.5,2.505-.113,4.5-.043,5.707-.1,14.912-.08,20.746,1.925,28.381-1.811a22.484,22.484,0,0,0,7.6-5.738c8.241-9.618,6.789-22.477,6.421-26.292a36.814,36.814,0,0,0-1.516-6.863Q152.52-43.181,144.727-41.868Zm-73.159-1.31A1.31,1.31,0,0,0,70.891-41a6.893,6.893,0,0,0,4.441,1.756c4.1.143,8.589-2.4,4.034-3.762A15.642,15.642,0,0,0,71.568-43.179Zm20.612.019a1.259,1.259,0,0,0-.576,2.181,6.976,6.976,0,0,0,4.541,1.76c4.1.143,8.593-2.5,4.034-3.762C97.311-43.981,94.192-43.489,92.179-43.159Z" fill="#482d1f"/>
              <path id="Path-4" data-name="Path" d="M144.687-40a14.491,14.491,0,0,0-1.4-8.685,13.171,13.171,0,0,0-6.831-6.352,1,1,0,0,1-.489-1.327,1,1,0,0,1,1.327-.489,16.815,16.815,0,0,1,3.506,2.092,14.924,14.924,0,0,1,4.269,5.168,16.479,16.479,0,0,1,1.594,9.9,1,1,0,0,1-1.142.834A1,1,0,0,1,144.687-40Z" transform="translate(-1.585 -4.963) rotate(2)" fill="#482d1f"/>
            </g>
          </g>
        </g>
      </g>
    </g>
    <path id="Text" d="M83.782,481.473H307.745a15,15,0,0,1,15,15v8.518a15,15,0,0,1-15,15H83.782a15,15,0,0,1-15-15v-8.518A15,15,0,0,1,83.782,481.473Zm0,62.591H276a15,15,0,0,1,15,15v8.518a15,15,0,0,1-15,15H83.782a15,15,0,0,1-15-15v-8.518A15,15,0,0,1,83.782,544.064Z" transform="translate(715 -21)" fill="#69e3c5"/>
    <g id="UI-_-Icons-_-Cursor" data-name="UI-/-Icons-/-Cursor" transform="translate(1099 230)">
      <path id="Path-5" data-name="Path" d="M67.334,42.305,1.666,0A12.207,12.207,0,0,0,0,1.308L24.549,75.19s9.644-1.308,17.1-5.5L52.78,84a83.067,83.067,0,0,0,9.334-5.77A56.67,56.67,0,0,0,69,71.526L57.865,57.134C61.022,52.162,64.178,47.19,67.334,42.305Z" fill="#d8deed"/>
    </g>
  </g>
</svg>
