<svg id="target2" xmlns="http://www.w3.org/2000/svg" width="586.706" height="586.706" viewBox="0 0 586.706 586.706">
  <path id="Path_496" data-name="Path 496" d="M82.566,275.018a51.374,51.374,0,0,0,35.76-14.467l50.59,25.3A51.56,51.56,0,1,0,266.6,269.987l68.764-68.764a51.563,51.563,0,0,0,71.427-61.946l59.74-44.8a51.5,51.5,0,1,0-20.644-27.488l-59.74,44.8a51.547,51.547,0,0,0-75.088,65.129L242.3,245.681a51.455,51.455,0,0,0-57.98,9.427l-50.59-25.3a51.559,51.559,0,1,0-51.159,45.205ZM495.094,34.377A17.189,17.189,0,1,1,477.9,51.566,17.21,17.21,0,0,1,495.094,34.377ZM357.584,137.509A17.189,17.189,0,1,1,340.4,154.7,17.21,17.21,0,0,1,357.584,137.509ZM220.075,275.018a17.189,17.189,0,1,1-17.189,17.189A17.21,17.21,0,0,1,220.075,275.018ZM82.566,206.264a17.189,17.189,0,1,1-17.189,17.189A17.21,17.21,0,0,1,82.566,206.264Zm0,0" transform="translate(4.523 0)" fill="#f06"/>
  <path id="Path_497" data-name="Path 497" d="M569.517,530.442H551.183V167.189A17.187,17.187,0,0,0,533.994,150H465.239a17.187,17.187,0,0,0-17.189,17.189V530.442H413.674V270.321a17.187,17.187,0,0,0-17.189-17.189H327.73a17.187,17.187,0,0,0-17.189,17.189V530.442H276.164V407.83a17.187,17.187,0,0,0-17.189-17.189H190.221a17.187,17.187,0,0,0-17.189,17.189V530.442H138.655V339.075a17.187,17.187,0,0,0-17.189-17.189H52.712a17.187,17.187,0,0,0-17.189,17.189V530.442H17.189a17.189,17.189,0,0,0,0,34.377H569.517a17.189,17.189,0,0,0,0-34.377ZM482.428,184.377h34.377V530.442H482.428ZM344.919,287.509H379.3V530.442H344.919ZM207.41,425.018h34.377V530.442H207.41ZM69.9,356.264h34.377V530.442H69.9Zm0,0" transform="translate(0 21.887)" fill="#f06"/>
</svg>
