<svg xmlns="http://www.w3.org/2000/svg" width="512" height="512" viewBox="0 0 512 512">
  <path id="target1" d="M474.414,122.438l24.832-24.828A15,15,0,0,0,489.9,72.055l-46.066-3.887L439.945,22.1a15,15,0,0,0-25.551-9.344L389.563,37.586A256.008,256.008,0,0,0,74.98,437.02,256.011,256.011,0,0,0,474.414,122.438ZM415,83.313A15.006,15.006,0,0,0,428.688,97l26.5,2.234-35.875,35.875-39.125-3.3-3.3-39.125,35.875-35.875ZM307,256a51.046,51.046,0,1,1-27.152-45.062l-34.453,34.457a15,15,0,1,0,21.211,21.211l34.457-34.453A50.655,50.655,0,0,1,307,256Zm-5.348-66.867a81.09,81.09,0,1,0,21.215,21.215L365.7,167.52A140.329,140.329,0,0,1,397,256c0,77.746-63.254,141-141,141S115,333.746,115,256s63.254-141,141-141a140.329,140.329,0,0,1,88.48,31.3ZM415.8,415.8A226,226,0,1,1,96.2,96.2,226.1,226.1,0,0,1,367.672,59.477L350.754,76.395a15,15,0,0,0-4.391,10.223c-.012.547,0,1.094.047,1.645l2.02,23.934A169.967,169.967,0,0,0,256,85C161.711,85,85,161.711,85,256s76.711,171,171,171,171-76.711,171-171a169.967,169.967,0,0,0-27.2-92.43l23.934,2.02c.422.031.844.051,1.262.051.07,0,.145-.008.215-.012.2,0,.395-.016.594-.027.324-.02.652-.039.973-.078.2-.027.4-.059.6-.09.316-.051.629-.109.941-.18.2-.047.395-.1.59-.148.3-.082.605-.176.906-.277.2-.066.387-.133.578-.207.293-.113.582-.238.871-.375.184-.082.367-.164.551-.258.289-.148.57-.312.848-.477.168-.1.336-.2.5-.3.3-.2.582-.406.867-.621.133-.1.27-.191.4-.3a14.871,14.871,0,0,0,1.176-1.051l16.918-16.918A226.1,226.1,0,0,1,415.8,415.8Zm0,0" fill="#763aff"/>
</svg>
