<svg xmlns="http://www.w3.org/2000/svg" width="586.98" height="511.726" viewBox="0 0 586.98 511.726">
  <g id="target3" transform="translate(-184 -16)">
    <path id="Path_477" data-name="Path 477" d="M268.678,88a52.678,52.678,0,1,0,52.678,52.678A52.678,52.678,0,0,0,268.678,88Zm0,75.254a22.576,22.576,0,1,1,22.576-22.576,22.576,22.576,0,0,1-22.576,22.576Z" transform="translate(28.203 63.457)" fill="#6000ff"/>
    <path id="Path_478" data-name="Path 478" d="M755.929,16H437.318a90.768,90.768,0,0,0-77.436,43.845L341.036,91.254H229.152A45.2,45.2,0,0,0,184,136.406V407.32a45.2,45.2,0,0,0,45.152,45.152h90.3v60.2a15.051,15.051,0,0,0,24.685,11.563l86.126-71.766H635.523a45.2,45.2,0,0,0,45.152-45.152V193.686a160.829,160.829,0,0,0,83.782-44.522l2.115-2.115a15.05,15.05,0,0,0,4.408-10.643V31.051A15.051,15.051,0,0,0,755.929,16ZM650.574,407.32a15.068,15.068,0,0,1-15.051,15.051H424.812a15.051,15.051,0,0,0-9.634,3.488l-65.62,54.682V437.422a15.051,15.051,0,0,0-15.051-15.051H229.152A15.068,15.068,0,0,1,214.1,407.32V385.739l135.032-81.018,127.533,85.02a15.051,15.051,0,0,0,15.081.941l82.491-41.247,76.336,50.889Zm0-43.173-66.9-44.6a15.051,15.051,0,0,0-15.081-.941L486.1,359.85,357.908,274.39a15.051,15.051,0,0,0-16.093-.376L214.1,350.635V136.406a15.068,15.068,0,0,1,15.051-15.051H463.732L414.44,170.647A52.3,52.3,0,1,0,488.4,244.613l73.8-73.8a161.457,161.457,0,0,0,87.71,25.8c.222,0,.44-.015.662-.017Zm90.3-234.028a131.894,131.894,0,0,1-164.127,14.238l-8.133-5.422a15.051,15.051,0,0,0-18.992,1.881l-82.51,82.508a22.195,22.195,0,1,1-31.392-31.385l74.985-74.987,30.1-30.1L519.525,65.56,493.831,91.254H376.142l9.552-15.922A60.512,60.512,0,0,1,437.318,46.1H740.879Z" transform="translate(0 0)" fill="#6000ff"/>
  </g>
</svg>
